# xmcd
#
# Track frame offsets: 
#        150
#        16350
#        33975
#        48850
#        68737
#        84912
#        106150
#        129687
#        151025
#
# Disc length: 2308 seconds
#
# Revision: 1
# Processed by: cddbd v1.5.2PL0 Copyright (c) Steve Scherf et al.
# Submitted via: ExactAudioCopy v0.99pb4
#
DISCID=60090209
DTITLE=Bud Powell - Piano Interpretations by Bud Powell
DYEAR=1955
DGENRE=Jazz
TTITLE0=Conseption
TTITLE1=East of the Sun
TTITLE2=Heart and Soul
TTITLE3=Willow Groove
TTITLE4=Crazy Rhythm
TTITLE5=Willow Weep for Me
TTITLE6=Bean and the Boys
TTITLE7=Lady Bird
TTITLE8=Stairway to the Stars
EXTD=
EXTT0=
EXTT1=
EXTT2=
EXTT3=
EXTT4=
EXTT5=
EXTT6=
EXTT7=
EXTT8=
PLAYORDER=
